<svg width="657" height="591" xmlns="http://www.w3.org/2000/svg" id="hdmachine" xmlns:xlink="http://www.w3.org/1999/xlink">
 <defs>
  <linearGradient id="linearGradient3524">
   <stop stop-color="#fe5555" id="stop3526" offset="0"/>
   <stop stop-color="#fe5555" id="stop3528" offset="1"/>
  </linearGradient>
  <linearGradient id="linearGradient3066">
   <stop stop-color="#80e5ff" id="stop3068" offset="0"/>
   <stop stop-color="#ff5555" id="stop3070" offset="1"/>
  </linearGradient>
  <linearGradient id="linearGradient3053">
   <stop stop-color="#f8d547" id="stop3055" offset="0"/>
   <stop stop-color="#dbb20e" id="stop3057" offset="1"/>
  </linearGradient>
  <linearGradient id="linearGradient5305">
   <stop stop-color="#ffffff" id="stop5307" offset="0"/>
   <stop stop-color="#ffffff" stop-opacity="0" id="stop5309" offset="1"/>
  </linearGradient>
  <linearGradient y2="1.07294" x2="10.59447" y1="1.07294" x1="8.64497" gradientTransform="matrix(0.5129546,0,0,0.5471806,92.54806,88.502249)" id="linearGradient3035" xlink:href="#linearGradient5305"/>
  <linearGradient y2="1.00458" x2="0.42781" y1="-0.00458" x1="0.42781" id="linearGradient3059" xlink:href="#linearGradient3053"/>
  <linearGradient y2="0.18398" x2="0.72661" y1="0.56627" x1="0.72245" id="linearGradient2733" xlink:href="#linearGradient3066"/>
  <linearGradient y2="0.93084" x2="0.11721" y1="0.60337" x1="0.10621" id="linearGradient3530" xlink:href="#linearGradient3524"/>
 </defs>
 <g>
  <title>background</title>
  <rect x="-1" y="-1" width="659" height="593" id="canvas_background" fill="none"/>
 </g>
 <g>
  <title>Layer 1</title>
  <path fill="#e6e6e6" stroke-width="1.25638" stroke-linejoin="round" stroke-miterlimit="4" stroke-dashoffset="0" id="rect3601" d="m225.98805,33.51557l0,1.28125l0,2.875l0,1.28125c-0.14009,8.2087 -7.10391,7.01588 -7.31007,0.34375c-0.57147,1.04734 -1.16867,1.0431 -1.01704,2.84375c0.74339,8.82852 12.48158,7.06623 12.42712,-1.21875l46.94341,-0.375l0,15.59375l-23.48758,0c-4.10254,0 -7.40543,3.24752 -7.40543,7.28125l0,420.15621c0,4.03375 3.30289,7.28125 7.40543,7.28125l209.70386,0c4.10254,0 7.40543,-3.2475 7.40543,-7.28125l0,-420.15621c0,-4.03373 -3.30289,-7.28125 -7.40543,-7.28125l-179.09689,0l0,-19.125c0,-0.96951 -0.40543,-1.83612 -1.04883,-2.46875c-0.16537,-0.1648 -0.31259,-0.30755 -0.50851,-0.4375c-0.3786,-0.2511 -0.80704,-0.43831 -1.27127,-0.53125c-0.23221,-0.04647 -0.48456,-0.0625 -0.73108,-0.0625l-54.60306,0l-0.00002,0l-0.00002,0l-0.00003,0l0.00002,0z"/>
  <path fill="#b8adad" stroke="#000000" stroke-linecap="round" stroke-linejoin="round" stroke-miterlimit="4" stroke-dashoffset="0" d="m273.76901,283.53375l50.46198,0c0.9613,0 1.73523,0.77393 1.73523,1.73523l0,4.46198c0,0.96133 -0.77393,1.73523 -1.73523,1.73523l-50.46198,0c-0.9613,0 -1.73523,-0.7739 -1.73523,-1.73523l0,-4.46198c0,-0.9613 0.77393,-1.73523 1.73523,-1.73523z" id="path5172"/>
  <path fill="#b8adad" stroke="#000000" stroke-linecap="round" stroke-linejoin="round" stroke-miterlimit="4" stroke-dashoffset="0" id="rect3662" d="m273.76901,171.53378l50.46198,0c0.9613,0 1.73523,0.77391 1.73523,1.73521l0,4.46199c0,0.96129 -0.77393,1.7352 -1.73523,1.7352l-50.46198,0c-0.9613,0 -1.73523,-0.77391 -1.73523,-1.7352l0,-4.46199c0,-0.9613 0.77393,-1.73521 1.73523,-1.73521z"/>
  <path fill="#dfb717" fill-rule="evenodd" stroke="#000000" stroke-width="0.5" stroke-miterlimit="4" id="path7739" d="m265.8125,273.51556c-25.71732,3.00821 -43.69702,8.75391 -53.25,15.78125c-9.55299,7.02734 -12.45279,16.01093 -11.71875,25.40625c0.73404,9.39532 4.8588,19.30017 8.96875,29.125c4.10994,9.8248 8.21193,22.81909 9.1875,31.59375l3,-0.34375c-1.04965,-9.44092 -5.30093,-22.59253 -9.40625,-32.40625c-4.10533,-9.81375 -8.07191,-19.53946 -8.75,-28.21875c-0.6781,-8.67929 1.66878,-16.2536 10.5,-22.75c8.83121,-6.49643 26.38733,-12.24106 51.84375,-15.21875l-0.375,-2.96875z"/>
  <path fill="#f3cf3d" fill-rule="evenodd" stroke="#000000" stroke-width="0.5" stroke-miterlimit="4" id="path5176" d="m266,188.51558c-39.75479,-0.3237 -70.51317,25.13765 -90.625,60.78125c-20.11183,35.64357 -30.02074,83.35036 -36.07599,124.76775l2.9375,0.40625c6.02095,-41.18277 15.94957,-88.58969 35.76349,-123.70525c19.81392,-35.1156 49.53398,-59.56322 88,-59.25l0,-3z"/>
  <path fill="url(#linearGradient3059)" fill-rule="evenodd" stroke="#000000" stroke-miterlimit="4" stroke-dashoffset="0" id="rect4179" d="m294.22446,169.01714c-0.46759,0 -0.83603,0.36842 -0.83603,0.83604l0,6.62138l-15.09225,0c-0.46823,0 -0.83603,0.31828 -0.83603,0.70226l0,10.03238l-12.85065,0l0,6.42073l12.85065,0l0,78.11882l-12.85065,0l0,6.42072l12.85065,0l0,7.89212c0,0.38397 0.3678,0.68558 0.83603,0.68558l15.09225,0l0,6.62137c0,0.46762 0.36844,0.85275 0.83603,0.85275l9.02914,0c0.46762,0 0.83603,-0.38513 0.83603,-0.85275l0,-6.62137l15.09229,0c0.4682,0 0.83603,-0.30161 0.83603,-0.68558l0,-108.88478c0,-0.38396 -0.36783,-0.70226 -0.83603,-0.70226l-15.09229,0l0,-6.62138c0,-0.46762 -0.36841,-0.83603 -0.83603,-0.83603l-9.02914,0l0,0z"/>
  <path fill="url(#linearGradient3035)" fill-rule="evenodd" id="rect4190" d="m282.36499,180.681l12.4158,0l0,101.88748l-12.4158,0l0,-101.88748z"/>
  <g id="g13659"/>
  <g id="g7731">
   <path fill="#b3b3b3" fill-rule="evenodd" stroke="#000000" stroke-miterlimit="4" stroke-dashoffset="0" id="path7733" d="m260.81064,200.18083c0,-6.45242 -5.23674,-11.68915 -11.68915,-11.68915c-6.45241,0 -11.68915,5.23671 -11.68915,11.68915c0,6.45241 5.23674,11.68915 11.68915,11.68915c6.45241,0 11.68915,-5.23674 11.68915,-11.68915z"/>
  </g>
  <path fill="#e6e6e6" fill-rule="evenodd" stroke="#000000" stroke-width="0.40912" stroke-miterlimit="4" stroke-dashoffset="0" id="path7735" d="m249.3681,196.75c0,-2.54919 -2.06891,-4.6181 -4.6181,-4.6181c-2.54919,0 -4.61813,2.06891 -4.61813,4.6181c0,2.54921 2.06894,4.61812 4.61813,4.61812c2.54919,0 4.6181,-2.06891 4.6181,-4.61812z"/>
  <path fill="#e6e6e6" fill-rule="evenodd" stroke="#000000" stroke-width="0.40912" stroke-miterlimit="4" stroke-dashoffset="0" id="path7737" d="m257.6181,204.5c0,-2.54919 -2.06891,-4.6181 -4.6181,-4.6181c-2.54919,0 -4.6181,2.06891 -4.6181,4.6181c0,2.54921 2.06891,4.61812 4.6181,4.61812c2.54919,0 4.6181,-2.06891 4.6181,-4.61812z"/>
  <text font-size="42px" font-style="normal" font-weight="normal" text-anchor="start" fill="#000000" font-family="Arial" transform="translate(-26.698484420776367,-35.36220169067383) scale(0.9772318005561829,1.023298740386963) " xml:space="preserve" id="text7968" y="364.42379" x="40.63124"/>
  <path fill="none" fill-rule="evenodd" stroke="#000000" stroke-width="1px" id="path8004" d="m302.88077,440.99286l0,0z"/>
  <path fill="none" fill-rule="evenodd" stroke="#000000" stroke-width="0.2" stroke-miterlimit="4" id="path8006" d="m301.82013,441.69995l4.24261,-4.94974"/>
  <path fill="none" fill-rule="evenodd" stroke="#000000" stroke-width="0.2" stroke-miterlimit="4" id="path8008" d="m302.52722,444.52838l6.01041,-6.7175"/>
  <path fill="none" fill-rule="evenodd" stroke="#000000" stroke-width="1px" d="m320.91199,456.54919l0,0z" id="path8010"/>
  <path fill="none" fill-rule="evenodd" stroke="#000000" stroke-width="0.2" stroke-miterlimit="4" d="m319.85135,457.25632l4.24261,-4.94977" id="path8012"/>
  <path fill="none" fill-rule="evenodd" stroke="#000000" stroke-width="0.2" stroke-miterlimit="4" d="m320.55844,460.08472l6.01041,-6.7175" id="path8014"/>
  <path fill="none" fill-rule="evenodd" stroke="#808080" stroke-width="0.2" stroke-miterlimit="4" id="path3355" d="m266.5,366l0,5.25"/>
  <path fill="none" fill-rule="evenodd" stroke="#808080" stroke-width="0.2" stroke-miterlimit="4" d="m262.5,366l0,5.25" id="path3361"/>
  <g id="connected_concentrate">
   <path fill="none" stroke="#000000" stroke-width="0.6" stroke-linejoin="round" stroke-miterlimit="4" stroke-dashoffset="0" d="m138.12067,425.40765c-1.29501,0.00601 -2.552,0.495 -3.53999,1.49301l-13.30701,13.47699l-13.30598,-13.17899c-1.995,-1.97501 -5.19101,-1.95203 -7.16602,0.043c-1.97449,1.99399 -1.9944,5.19 0,7.16498l13.30701,13.17902l-13.136,13.26401c-1.97501,1.995 -1.9948,5.19098 0,7.16498c1.995,1.97501 5.19,1.952 7.16499,-0.04199l13.13599,-13.26401l13.478,13.306c1.99501,1.97501 5.19,1.952 7.16502,-0.04199c1.97498,-1.995 1.995,-5.19101 0,-7.16501l-13.47702,-13.35001l13.30701,-13.435c1.974,-1.99399 1.994,-5.19 0,-7.16498c-0.998,-0.987 -2.33101,-1.457 -3.62601,-1.45001l0,0l0,0l0,0z" id="path3589"/>
   <path fill="#000000" stroke="#000000" stroke-width="0.3" stroke-linejoin="round" stroke-miterlimit="4" stroke-dashoffset="0" d="m121.40859,373.42029l-23.87498,0.03125c-3.76973,0.0025 -6.81503,3.07352 -6.8125,6.84375l0.03125,10.84375c-0.31557,0.22672 -0.62445,0.4682 -0.90625,0.75c-0.66785,0.66785 -1.19144,1.46359 -1.5625,2.34375c-0.36346,0.86215 -0.58501,1.81476 -0.59375,2.8125c-0.00018,0.02124 0,0.0412 0,0.0625c-0.0246,0.10678 -3.39384,14.70145 -4,21.1875c-0.59795,6.3981 0,21.25 0,21.25l0,42.40625c0,2.03882 0.82401,3.88647 2.15625,5.21875c1.33051,1.33051 3.14552,2.1875 5.1875,2.1875l30.40623,0l30.40624,0c2.04199,0 3.88823,-0.85699 5.21875,-2.1875c1.33229,-1.33221 2.15625,-3.17999 2.15625,-5.21875l0,-42.40625c0,0 0.59796,-14.85187 0,-21.25c-0.60617,-6.48605 -3.97539,-21.08072 -4,-21.1875c0,-0.02127 0.00017,-0.04129 0,-0.0625c-0.00743,-0.99167 -0.1967,-1.94476 -0.5625,-2.8125c-0.37346,-0.88596 -0.92937,-1.67935 -1.59375,-2.34375c-0.66437,-0.66443 -1.45781,-1.22031 -2.34375,-1.59375c-0.3423,-0.14432 -0.67415,-0.2254 -1.03125,-0.3125l0,-5.96875c0.00003,-4.07797 -3.29706,-7.375 -7.375,-7.375l-2.84375,0c-4.07794,-0.00003 -7.34372,3.29706 -7.34375,7.375l0,5.71875l-3.875,0l-0.03125,-9.46875c-0.00252,-3.76807 -3.04224,-6.84628 -6.81252,-6.84375l0.00002,0l0.00002,0l-0.00001,0zm0,0.625c3.44567,-0.00232 6.21644,2.77084 6.21876,6.21875l0.03125,9.78125c-0.00093,0.06775 0.0211,0.13385 0.0625,0.1875c0.01764,0.02377 0.0387,0.04486 0.0625,0.0625c0.04506,0.03531 0.09927,0.05698 0.15625,0.0625l4.46875,0c0.08272,0.00021 0.16188,-0.03369 0.21875,-0.09375c0.02658,-0.02704 0.04778,-0.05884 0.0625,-0.09375c0.01935,-0.03891 0.03001,-0.08157 0.03125,-0.125l0,-6.03125c0.00002,-3.75681 2.99319,-6.75003 6.75,-6.75l2.84375,0c3.75681,0 6.78127,2.99319 6.78125,6.75l0,6.1875c-0.00093,0.06775 0.0211,0.13385 0.0625,0.1875c0.01764,0.02377 0.03871,0.04486 0.0625,0.0625c0.0293,0.0155 0.06097,0.02606 0.09375,0.03125c0.41435,0.09033 0.81415,0.21759 1.1875,0.375c0.80716,0.34024 1.54257,0.85504 2.15625,1.46875c0.61371,0.61368 1.12849,1.34909 1.46875,2.15625c0.3401,0.80676 0.50002,1.68124 0.5,2.625c-0.00218,0.02075 -0.00218,0.04172 0,0.0625c0,0 3.40318,14.80121 4,21.1875c0.58641,6.27457 0,21.1875 0,21.1875l0,42.40625c0,1.8786 -0.74481,3.55731 -1.96875,4.78125c-1.22565,1.22565 -2.9371,2 -4.8125,2l-30.40625,0l-30.40623,0c-1.8754,0 -3.5556,-0.77429 -4.78125,-2c-1.22395,-1.22394 -1.96875,-2.90265 -1.96875,-4.78125l0,-42.40625c0,0 -0.5864,-14.91296 0,-21.1875c0.59685,-6.38626 4,-21.1875 4,-21.1875c0.00217,-0.02078 0.00217,-0.04175 0,-0.0625c0,-0.93735 0.18871,-1.81247 0.53125,-2.625c0.3427,-0.81293 0.82727,-1.54602 1.4375,-2.15625c0.27969,-0.27969 0.62508,-0.53955 0.96875,-0.78125c0.01118,-0.00964 0.02161,-0.02008 0.03125,-0.03125c0.06007,-0.05688 0.09399,-0.13605 0.09375,-0.21875l-0.03125,-11c-0.00233,-3.44565 2.77264,-6.21646 6.21875,-6.21875l23.87498,-0.03125l-0.00001,0zm-18.99998,5.9375c-2.57384,0.00174 -4.62675,2.08191 -4.625,4.65625l0.03125,5.40625c-0.00095,0.06775 0.0211,0.13385 0.0625,0.1875c0.01762,0.02377 0.0387,0.04486 0.06252,0.0625c0.04504,0.03531 0.09927,0.05698 0.15625,0.0625l22.78123,0c0.08273,0.00021 0.16188,-0.03369 0.21875,-0.09375c0.02657,-0.02704 0.04778,-0.05884 0.0625,-0.09375c0.01936,-0.03891 0.03001,-0.08157 0.03125,-0.125l-0.03125,-5.4375c-0.00172,-2.57385 -2.08449,-4.62674 -4.65625,-4.625l-14.09373,0l-0.00002,0zm0,0.625l14.09373,0c2.25676,-0.00156 4.06099,1.74533 4.0625,4l0.03125,5.125l-22.18748,0l-0.03125,-5.09375c-0.00153,-2.25418 1.7766,-4.02975 4.03125,-4.03125z" id="path3583"/>
   <rect fill="none" stroke="#000000" stroke-width="0.6" stroke-linejoin="round" stroke-miterlimit="4" stroke-dashoffset="0" ry="5.22538" y="410.8067" x="94.98397" height="73.15537" width="52.94216" id="rect3585"/>
   <path fill="#d5f6ff" stroke="#000000" stroke-linejoin="round" stroke-miterlimit="4" stroke-dashoffset="0" d="m130.76334,371.82928c-0.85806,0 -1.53125,0.70447 -1.53125,1.5625l0,4.09375c0,0.85806 0.67319,1.5625 1.53125,1.5625l0.09375,0l-1.0625,7.4375l22.0625,0l-1.0625,-7.4375l0.09375,0c0.85803,0 1.53125,-0.70444 1.53125,-1.5625l0,-4.09375c0,-0.85803 -0.67322,-1.56247 -1.53125,-1.5625l-20.125,0z" id="path3587"/>
   <path fill="#d5f6ff" fill-rule="evenodd" stroke="#000000" stroke-width="0.6" stroke-miterlimit="4" d="m149.57584,377.85541l-17.5,0" id="path3591"/>
   <text font-weight="bold" fill="#000000" stroke="#000000" stroke-width="0" stroke-opacity="null" x="30.15973" y="538.8386" id="svg_2" font-size="12" font-family="Helvetica, Arial, sans-serif" text-anchor="left" xml:space="preserve">%concentrate%</text>
   <line stroke="#000000" stroke-linecap="null" stroke-linejoin="round" id="svg_19" y2="495.53751" x2="95.95942" y1="522.04172" x1="68.95482" stroke-opacity="null" fill="none"/>
  </g>
  <text font-weight="bold" fill="#000000" stroke="#000" stroke-width="0" x="330.5" y="232.5" id="svg_10" font-size="12" font-family="Helvetica, Arial, sans-serif" text-anchor="left" xml:space="preserve">Dialyzer</text>
  <g id="svg_21">
   <path fill="#000000" stroke="#000000" stroke-width="0.3" stroke-linejoin="round" stroke-miterlimit="4" stroke-dashoffset="0" id="rect3536" d="m200.74193,373.75363l-23.875,0.03125c-3.76973,0.0025 -6.81503,3.07352 -6.8125,6.84375l0.03125,10.84375c-0.31555,0.22672 -0.62445,0.4682 -0.90625,0.75c-0.66786,0.66785 -1.19145,1.46359 -1.5625,2.34375c-0.36345,0.86215 -0.58499,1.81476 -0.59375,2.8125c-0.00018,0.02124 0,0.0412 0,0.0625c-0.02458,0.10678 -3.39383,14.70145 -4,21.1875c-0.59795,6.3981 0,21.25 0,21.25l0,42.40625c0,2.03882 0.82401,3.88647 2.15625,5.21875c1.33052,1.33051 3.14554,2.1875 5.1875,2.1875l30.40625,0l30.40625,0c2.04199,0 3.88823,-0.85699 5.21877,-2.1875c1.33229,-1.33221 2.15625,-3.17999 2.15625,-5.21875l0,-42.40625c0,0 0.59793,-14.85187 0,-21.25c-0.60617,-6.48605 -3.97542,-21.08072 -4.00002,-21.1875c0,-0.02127 0.00017,-0.04129 0,-0.0625c-0.00743,-0.99167 -0.1967,-1.94476 -0.5625,-2.8125c-0.37346,-0.88596 -0.92935,-1.67935 -1.59375,-2.34375c-0.66437,-0.66443 -1.45781,-1.22031 -2.34375,-1.59375c-0.3423,-0.14432 -0.67416,-0.2254 -1.03125,-0.3125l0,-5.96875c0.00002,-4.07797 -3.29706,-7.375 -7.375,-7.375l-2.84375,0c-4.07794,-0.00003 -7.34373,3.29706 -7.34375,7.375l0,5.71875l-3.875,0l-0.03125,-9.46875c-0.00252,-3.76807 -3.04225,-6.84628 -6.8125,-6.84375zm0,0.625c3.44566,-0.00232 6.21643,2.77084 6.21875,6.21875l0.03125,9.78125c-0.00093,0.06775 0.0211,0.13385 0.0625,0.1875c0.01764,0.02377 0.03871,0.04486 0.0625,0.0625c0.04506,0.03531 0.09927,0.05698 0.15625,0.0625l4.46875,0c0.08273,0.00021 0.16188,-0.03369 0.21875,-0.09375c0.02658,-0.02704 0.04778,-0.05884 0.0625,-0.09375c0.01935,-0.03891 0.03001,-0.08157 0.03125,-0.125l0,-6.03125c0.00002,-3.75681 2.99321,-6.75003 6.75,-6.75l2.84375,0c3.75681,0 6.78127,2.99319 6.78125,6.75l0,6.1875c-0.00093,0.06775 0.0211,0.13385 0.0625,0.1875c0.01764,0.02377 0.03871,0.04486 0.0625,0.0625c0.02931,0.0155 0.06099,0.02606 0.09375,0.03125c0.41437,0.09033 0.81415,0.21759 1.1875,0.375c0.80716,0.34024 1.54257,0.85504 2.15625,1.46875c0.61371,0.61368 1.12849,1.34909 1.46875,2.15625c0.3401,0.80676 0.50002,1.68124 0.5,2.625c-0.00218,0.02075 -0.00218,0.04172 0,0.0625c0,0 3.40318,14.80121 4.00002,21.1875c0.58641,6.27457 0,21.1875 0,21.1875l0,42.40625c0,1.8786 -0.7448,3.55731 -1.96875,4.78125c-1.22565,1.22565 -2.93709,2 -4.81252,2l-30.40625,0l-30.40625,0c-1.87541,0 -3.55559,-0.77429 -4.78125,-2c-1.22394,-1.22394 -1.96875,-2.90265 -1.96875,-4.78125l0,-42.40625c0,0 -0.58641,-14.91296 0,-21.1875c0.59685,-6.38626 4,-21.1875 4,-21.1875c0.00218,-0.02078 0.00218,-0.04175 0,-0.0625c0,-0.93735 0.18872,-1.81247 0.53125,-2.625c0.34271,-0.81293 0.82727,-1.54602 1.4375,-2.15625c0.27969,-0.27969 0.62509,-0.53955 0.96875,-0.78125c0.01117,-0.00964 0.02162,-0.02008 0.03125,-0.03125c0.06007,-0.05688 0.09399,-0.13605 0.09375,-0.21875l-0.03125,-11c-0.00232,-3.44565 2.77263,-6.21646 6.21875,-6.21875l23.875,-0.03125zm-19,5.9375c-2.57384,0.00174 -4.62674,2.08191 -4.625,4.65625l0.03125,5.40625c-0.00093,0.06775 0.0211,0.13385 0.0625,0.1875c0.01764,0.02377 0.03871,0.04486 0.0625,0.0625c0.04506,0.03531 0.09927,0.05698 0.15625,0.0625l22.78125,0c0.08273,0.00021 0.16188,-0.03369 0.21875,-0.09375c0.02658,-0.02704 0.04778,-0.05884 0.0625,-0.09375c0.01935,-0.03891 0.03001,-0.08157 0.03125,-0.125l-0.03125,-5.4375c-0.00172,-2.57385 -2.08449,-4.62674 -4.65625,-4.625l-14.09375,0zm0,0.625l14.09375,0c2.25676,-0.00156 4.06099,1.74533 4.0625,4l0.03125,5.125l-22.1875,0l-0.03125,-5.09375c-0.00151,-2.25418 1.77661,-4.02975 4.03125,-4.03125z"/>
   <rect fill="none" stroke="#000000" stroke-width="0.6" stroke-linejoin="round" stroke-miterlimit="4" stroke-dashoffset="0" id="rect3540" width="52.94216" height="73.15537" x="174.3173" y="411.14003" ry="5.22538"/>
   <path fill="none" stroke="#000000" stroke-width="0.6" stroke-linejoin="round" stroke-miterlimit="4" stroke-dashoffset="0" id="rect3563" d="m217.45399,425.741c-1.295,0.00601 -2.552,0.495 -3.53999,1.49301l-13.30701,13.47699l-13.306,-13.17899c-1.995,-1.97501 -5.19098,-1.95203 -7.166,0.043c-1.97499,1.99399 -1.99399,5.19 0,7.16498l13.30702,13.17902l-13.136,13.26401c-1.97502,1.995 -1.99501,5.19098 0,7.16498c1.99501,1.97501 5.19,1.952 7.16498,-0.04199l13.136,-13.26401l13.47801,13.306c1.99501,1.97501 5.18999,1.952 7.16499,-0.04199c1.97501,-1.995 1.995,-5.19101 0,-7.16501l-13.47701,-13.35001l13.30701,-13.435c1.974,-1.99399 1.994,-5.19 0,-7.16498c-0.998,-0.987 -2.33101,-1.457 -3.62601,-1.45001l0,0l0,0l0,0l0,0l0,0l0,0l0,0l0,0l0,0l0,0l0,0l0,0l0,0l0,0l0,0l0,0l0,0l0,0l0,0l0,0l0,0l0,0l0,0l0,0l0,0l0,0l0,0l0,0l0,0l0,0l0,0l0,0l0,0l0,0l0,0l0,0l0,0l0,0l0,0l0,0l0,0z"/>
   <path fill="#ffccaa" stroke="#000000" stroke-linejoin="round" stroke-miterlimit="4" stroke-dashoffset="0" id="rect3555" d="m210.09666,372.16263c-0.85805,0 -1.53125,0.70447 -1.53125,1.5625l0,4.09375c0,0.85806 0.6732,1.5625 1.53125,1.5625l0.09375,0l-1.0625,7.4375l22.0625,0l-1.0625,-7.4375l0.09375,0c0.85805,0 1.53125,-0.70444 1.53125,-1.5625l0,-4.09375c0,-0.85803 -0.6732,-1.56247 -1.53125,-1.5625l-20.125,0z"/>
   <path fill="#d5f6ff" fill-rule="evenodd" stroke="#000000" stroke-width="0.6" stroke-miterlimit="4" id="path3575" d="m228.90916,379.52206l-17.5,0"/>
  </g>
  <text xml:space="preserve" text-anchor="left" font-family="Helvetica, Arial, sans-serif" font-size="12" id="svg_31" y="579.5" x="11.5" stroke-width="0" stroke="#000" fill="#000000">Figure CC BY 3.0 YassineMrabet (https://commons.wikimedia.org/wiki/File:Hemodialysis-en.svg)</text>
  <path fill="#d7e3f4" fill-rule="evenodd" stroke="#000000" stroke-width="1.14566" stroke-miterlimit="4" stroke-dashoffset="0" id="rect5313" d="m298.58484,363.74701c-1.78162,0 -3.21591,1.43433 -3.21591,3.21594l0,9.45862c0,1.78165 1.4343,3.21594 3.21591,3.21594c1.78165,0 3.21594,-1.4343 3.21594,-3.21594l0,-9.45862c0,-1.78162 -1.4343,-3.21594 -3.21594,-3.21594z"/>
  <path fill="#d7e3f4" fill-rule="evenodd" stroke="#000000" stroke-width="1.14566" stroke-miterlimit="4" stroke-dashoffset="0" id="path5316" d="m294.87207,371.69226c0,2.04947 1.66333,3.7128 3.71277,3.7128c2.04947,0 3.71283,-1.66333 3.71283,-3.7128c0,-2.04947 -1.66336,-3.7128 -3.71283,-3.7128c-2.04944,0 -3.71277,1.66333 -3.71277,3.7128z"/>
  <g data-custom="m913" id="blood_pump" class="refinementGroup">
   <g id="g7728">
    <path fill="#b3b3b3" fill-rule="evenodd" stroke="#000000" stroke-miterlimit="4" stroke-dashoffset="0" d="m337.56815,448.43082c0,-12.52856 -10.16812,-22.69666 -22.69666,-22.69666c-12.52856,0 -22.69666,10.16809 -22.69666,22.69666c0,12.52856 10.16809,22.69666 22.69666,22.69666c12.52853,0 22.69666,-10.16809 22.69666,-22.69666z" id="path4266"/>
   </g>
   <path fill="#e6e6e6" fill-rule="evenodd" stroke="#000000" stroke-width="0.6" stroke-miterlimit="4" stroke-dashoffset="0" id="path5322" d="m328.56116,454.81171c0,-3.73853 -3.03415,-6.77267 -6.77267,-6.77267c-3.73849,0 -6.77267,3.03415 -6.77267,6.77267c0,3.73853 3.03418,6.77267 6.77267,6.77267c3.73853,0 6.77267,-3.03415 6.77267,-6.77267z"/>
   <path fill="#e6e6e6" fill-rule="evenodd" stroke="#000000" stroke-width="0.6" stroke-miterlimit="4" stroke-dashoffset="0" id="path5319" d="m311.61911,439.22025c0,-3.73849 -3.03418,-6.77267 -6.77267,-6.77267c-3.73853,0 -6.77267,3.03418 -6.77267,6.77267c0,3.73853 3.03415,6.77267 6.77267,6.77267c3.73849,0 6.77267,-3.03415 6.77267,-6.77267z"/>
   <g id="dasf2">
    <text xml:space="preserve" text-anchor="left" font-family="Helvetica, Arial, sans-serif" font-size="12" id="svg_1" y="487.5" x="282" stroke-width="0" stroke="#000" fill="#000000" font-weight="bold">Blood pump</text>
    <text xml:space="preserve" text-anchor="left" font-family="Helvetica, Arial, sans-serif" font-size="12" id="BP_value" y="507.50013" x="283.99996" stroke-opacity="null" stroke-width="0" stroke="#000000" fill="#0000ff" font-weight="bold">%BP_state%</text>
   </g>
   <g id="patient_blood_flow">
    <path fill="#80e5ff" stroke="#000000" stroke-width="0.8" stroke-linecap="round" stroke-linejoin="round" stroke-miterlimit="4" stroke-dashoffset="0" id="path7984" d="m461.52863,335.61917l9.18008,-5.2417l9.18011,-5.24173l-3.37988,10.36908l3.27872,10.77304l-9.12952,-5.32932l-9.12955,-5.32938l0.00003,0z"/>
    <path fill="#80e5ff" stroke="#000000" stroke-width="0.8" stroke-linecap="round" stroke-linejoin="round" stroke-miterlimit="4" stroke-dashoffset="0" id="path7986" d="m345.91238,430.18008l-5.24173,-9.18008l-5.24173,-9.18011l10.36908,3.37988l10.77307,-3.27869l-5.32935,9.12949l-5.32935,9.12952z"/>
    <path fill="#80e5ff" stroke="#000000" stroke-width="0.8" stroke-linecap="round" stroke-linejoin="round" stroke-miterlimit="4" stroke-dashoffset="0" d="m283.91238,411.81989l-5.24173,9.18008l-5.24173,9.18011l10.36908,-3.37988l10.77307,3.27869l-5.32935,-9.12949l-5.32935,-9.12952z" id="path7988"/>
    <path fill="#80e5ff" stroke="#000000" stroke-width="0.8" stroke-linecap="round" stroke-linejoin="round" stroke-miterlimit="4" stroke-dashoffset="0" id="path7990" d="m283.91238,298.81989l-5.24173,9.18008l-5.24173,9.18011l10.36908,-3.37988l10.77307,3.27869l-5.32935,-9.12949l-5.32935,-9.12952z"/>
    <g id="svg_28">
     <text xml:space="preserve" text-anchor="left" font-family="Helvetica, Arial, sans-serif" font-size="12" id="svg_26" y="475.93788" x="448.44146" fill-opacity="null" stroke-opacity="null" stroke-width="0" stroke="#000000" fill="#000000" font-weight="bold">Removed blood</text>
     <text xml:space="preserve" text-anchor="left" font-family="Helvetica, Arial, sans-serif" font-size="12" id="svg_27" y="492.43573" x="458.44015" fill-opacity="null" stroke-opacity="null" stroke-width="0" stroke="#000000" fill="#000000" font-weight="bold">for cleaning</text>
    </g>
    <line stroke-linecap="null" stroke-linejoin="round" id="svg_29" y2="351.95407" x2="477.93761" y1="456.94036" x1="489.93604" fill-opacity="null" stroke-opacity="null" stroke-width="null" stroke="#000000" fill="none"/>
   </g>
  </g>
  <g id="patient_connection">
   <g id="patient">
    <path fill="#ffccaa" stroke="#000000" stroke-width="1.14566" id="sdsa" d="m572.4375,111.01558c-3.2821,0.05379 -6.65491,0.90442 -10.09375,2.53125c-2.8501,1.3483 -5.79456,3.35485 -8.08917,5.35799c-2.49622,2.17908 -4.22333,4.35413 -4.22333,5.67326c0,0.58176 -1.43842,1.87961 -2.40625,3.5c-2.57703,4.3145 -2.2785,3.26706 -0.9375,3.34375c1.2536,0.07167 1.33521,1.53856 0.28125,2.4375c-0.94574,0.80663 -1.72864,3.17842 -1.42853,5.46457c0.67566,5.14751 -0.97382,12.12239 -0.13397,13.69168c0.56158,1.04938 2.79803,2.60475 5,3.46875c3.27808,1.28619 4.2663,2.49117 5.40625,6.5625c0.76563,2.73491 1.12695,7.63362 0.8125,10.90625c-0.69269,7.20891 -3.2146,9.67749 -10.9375,10.6875c-21.76416,2.84636 -26.11945,11.52635 -27.71875,55c-0.61444,16.70088 -1.59949,27.9048 -2.875,33.21873c-1.39569,5.81467 -2.17139,16.6879 -2.84375,39.53125c-0.51001,17.32816 -1.52698,33.78009 -2.25,36.5625c-1.08978,4.19354 -0.98181,5.83997 0.5625,9.71875c2.3681,5.94781 4.66357,8.46616 9.53125,10.5c5.71661,2.38855 6.73431,2.53152 7.03125,-3.90625c-1.40588,-0.5849 -2.80219,-5.33292 -3.875,-7.25l-0.625,-5.75c0.54877,0.95532 1.91998,2.85266 1.96875,4.9375c0.07233,3.09052 1.47394,3.5853 2.28125,4.1875l0,-6.875l-1.125,-9.75l-0.25,-1.875c-1.26196,-8.88779 -0.18359,-19.81628 3.8125,-37.96875c1.80328,-8.1915 3.6264,-19.26901 4.03125,-24.625c1.05927,-14.01385 1.90552,-19.46875 3.0625,-19.46875c0.55859,0 1.03125,2.30118 1.03125,5.125c0,2.82382 0.59753,8.71097 1.34375,13.0625c1.32684,7.73767 1.29724,8.08896 -2.15625,15.8125c-1.9422,4.3436 -4.6709,13.0307 -6.0625,19.3125c-1.3916,6.2818 -2.87769,16.82129 -3.3125,23.4375l1.125,23.5c1.28723,14.05038 2.77277,21.24783 8.0625,39.4375c6.52661,22.44278 7.75488,32.31519 7.0625,56.78125c-2.0769,12.79324 0.36377,25.61301 3.625,38.40622c2.32098,9.76678 4.67719,22.63895 5.21875,28.62503l0.96875,10.875l-4.46875,7.125c-4.58826,7.26868 -4.78217,9.17822 -1.3125,13.21875c1.3512,1.57361 3.4389,1.98718 9.84375,1.90625c10.08209,-0.12726 13.21686,-2.37604 13.4375,-9.5625l0.09375,-3.1875l-0.3125,-0.59375l-0.09375,-17c-0.38129,-2.68933 -1.02686,-5.9613 -1.75,-8.5625c-1.79047,-6.43988 -1.79681,-8.35953 -0.03125,-28.90628c1.48798,-17.31549 1.77673,-31.68228 1.40625,-67.28122c-0.25903,-24.88956 -0.08807,-49.64401 0.375,-55l0.84375,-9.71875l0.96875,10.25c0.52576,5.63959 0.711,19.81143 0.40625,31.5c-0.30475,11.68857 -0.13837,24.62299 0.375,28.71875c0.56732,4.52643 0.40771,11.96274 -0.375,18.96875c-0.98071,8.77789 -0.92743,15.59052 0.15625,28.625c2.74811,33.05685 2.81946,36.78442 0.84375,44.375c-1.0202,3.91956 -2.05359,8.91962 -2.28125,11.125c-0.02759,0.26697 -0.03833,0.36615 -0.0625,0.59375l-0.0625,13.65625l0,0.03125l0.4375,2.5625c1.25256,7.6803 3.37952,9.22229 12.96875,9.3125c8.66327,0.08154 10.72266,-0.80206 12.4375,-5.3125c0.84424,-2.22034 0.21533,-4.0769 -3.25,-9.78125c-3.93658,-6.48108 -4.24139,-7.59259 -3.9375,-14.46875c0.3479,-7.87537 1.61261,-14.74353 6.375,-34.50003c3.07471,-12.75513 3.77594,-23.33264 3.15625,-48.59372c-0.38129,-15.54404 0.88599,-23.53293 7.1875,-45.1875c5.71045,-19.62344 7.50909,-30.91888 8.25,-51.625c0.57556,-16.08676 0.35571,-18.99246 -2.25,-31.0625c-1.58197,-7.32809 -4.47144,-16.98929 -6.4375,-21.46875c-3.37469,-7.6889 -3.50482,-8.57178 -2.4375,-15.34375c0.62177,-3.94531 1.47522,-10.25055 1.90625,-14.03125c0.72473,-6.35663 0.85248,-6.61581 1.8125,-3.4375c0.57098,1.89035 1.49084,9.6261 2.03125,17.1875c0.54041,7.56137 2.02979,17.86533 3.3125,22.90625c3.8468,15.1167 6.08313,32.99933 4.84375,38.625c-0.59509,2.70139 -1.45575,10.53525 -1.90625,17.40625l-0.8125,12.5l3.90625,-0.78125c5.62988,-1.1037 9.24609,-4.10226 12.34375,-10.28125c2.56213,-5.11087 2.61884,-5.82562 1.25,-11.96875c-0.82513,-3.70319 -1.82196,-20.2063 -2.3125,-38.0625c-0.63885,-23.25244 -1.37628,-33.4415 -2.78125,-38.9375c-1.31934,-5.16116 -2.03009,-13.96683 -2.34375,-28.65623c-0.43079,-20.17599 -2.25476,-35.41496 -5.125,-42.9375c-2.67236,-7.00423 -12.44293,-14.2489 -19.34375,-14.3125c-5.74518,-0.05292 -11.74512,-2.69397 -13.40625,-5.90625c-3.75024,-7.25198 -0.69281,-21.625 4.59375,-21.625c5.82422,0 6.375,-0.81239 6.375,-9.625c0,-14.46022 -5.52972,-28.01785 -13.625,-33.375c-3.81311,-2.52341 -7.8739,-3.75668 -12.09375,-3.6875z"/>
    <text font-weight="bold" stroke="#000000" xml:space="preserve" text-anchor="left" font-family="Helvetica, Arial, sans-serif" font-size="12" id="svg_30" y="230.48994" x="552.54401" fill-opacity="null" stroke-opacity="null" stroke-width="0" fill="#000000">Patient</text>
   </g>
   <path fill="url(#linearGradient2733)" fill-rule="evenodd" stroke="#000000" stroke-width="0.6" stroke-miterlimit="4" stroke-dashoffset="0" id="path4323" d="m310.4375,120.73432c-7.05713,0 -12.75,5.69286 -12.75,12.74999l0,46.8125l-14.78125,0c-0.55466,0 -1,0.39957 -1,0.90625l0,101.375c0,0.50668 0.44534,0.90625 1,0.90625l14.53125,0l0.125,166.375c0,10.03448 7.37177,17.46875 17.40625,17.46875c10.03448,0 17.84375,-7.43427 17.84375,-17.46875l0.375,-114.84375c0,-6.42831 5.19666,-11.59375 11.625,-11.59375l6.5625,0l146.65625,0l6.59375,0c6.42834,0 11.59375,5.16544 11.59375,11.59375l2.15625,-0.25c0,-7.05716 -5.69293,-13.5 -12.75,-13.5l-7.59375,0l-146.65625,0l-7.59375,0c-7.05713,0 -12.71875,5.69284 -12.71875,12.75l-0.46875,58.9375l0,2.34375l0,9.40625l0,45.15625c0,10.17355 -7.22305,15.21875 -15.46875,15.21875c-8.2457,0 -15.375,-5.0452 -15.375,-15.21875l0,-166.375l14.8125,0c0.55466,0 1,-0.39957 1,-0.90625l0,-101.375c0,-0.50668 -0.44534,-0.90625 -1,-0.90625l-14.78125,0l0,-45.8125c0,-6.4283 5.22794,-11.59374 11.65625,-11.59374l6.59375,0l105.84375,0l6.59375,0c6.42838,0 11.59375,5.16544 11.59375,11.59374l0,23.71875l0,76.53125l0,22.28125l0.25,44.65625c0,7.05713 5.69287,12.75 12.75,12.75l54.59375,0c7.05713,0 12.75,-5.69287 12.75,-12.75l-2.15625,-0.5c0,6.42831 -5.16541,11.09375 -11.59375,11.09375l-52.59375,0c-6.42831,0 -11.625,-5.16544 -11.625,-11.59375l-0.21875,-94.96875l0,-72.21875c0,-7.05714 -5.69287,-12.74999 -12.75,-12.74999l-7.59375,0l-105.84375,0l-7.59375,0z"/>
   <path fill="url(#linearGradient3530)" fill-rule="evenodd" stroke="#000000" stroke-width="0.6" stroke-miterlimit="4" stroke-dashoffset="0" id="path3505" d="m442.13281,133.53336l0,123.43753l0.25,44.65622c0,7.05713 5.69284,12.75 12.75,12.75l54.59375,0c7.05713,0 12.75,-5.69287 12.75,-12.75l-2.15625,-0.5c0,6.42831 -5.16547,11.09375 -11.59375,11.09375l-52.59375,0c-6.42831,0 -11.625,-5.16544 -11.625,-11.59375l-0.125,-167.09375"/>
   <rect fill="#ffffff" stroke="#000000" stroke-width="0.6" stroke-linejoin="round" stroke-miterlimit="4" stroke-dashoffset="0" id="connected_aterially" width="12.75" height="2.5" x="382.82236" y="472.95103" transform="matrix(0.9501723,-0.3117252,0.3117252,0.9501723,0,0) "/>
   <rect fill="#ffffff" stroke="#000000" stroke-width="0.6" stroke-linejoin="round" stroke-miterlimit="4" stroke-dashoffset="0" transform="matrix(0.9601837,0.2793696,-0.2793696,0.9601837,0,0) " y="145.4391" x="578.51882" height="2.5" width="12.75" id="connected_venously"/>
  </g>
  <g class="refinementGroup" data-custom="m912" id="svg_5">
   <g id="VP_display">
    <path fill="#fe5555" fill-rule="evenodd" stroke="#000000" stroke-width="0.6" stroke-miterlimit="4" stroke-dashoffset="0" id="path10648" d="m358.06131,94.98798l0,22.23631l2.14023,0l0,-22.23631l-2.14023,0z"/>
    <g fill="#d7e3f4" stroke-width="1.12137" stroke-miterlimit="4" id="g4307">
     <path fill="#d7e3f4" fill-rule="evenodd" stroke="#000000" stroke-width="1.12137" stroke-miterlimit="4" stroke-dashoffset="0" d="m367.94644,128.89304l0,-14.24467c0,-0.46763 -0.37646,-0.8441 -0.84409,-0.8441l-14.39374,0c-0.46762,0 -0.84409,0.37647 -0.84409,0.8441l0,14.24467c0,0.46762 0.37634,0.84407 0.84409,0.84407l14.39374,0c0.46762,0 0.84409,-0.37642 0.84409,-0.84407z" id="rect4136"/>
     <path fill="#d7e3f4" fill-rule="evenodd" stroke="#000000" stroke-width="1.12137" stroke-miterlimit="4" stroke-dashoffset="0" d="m397.35834,130.24289l0,-16.94444l-32.31845,0l0,16.94444l32.31845,0z" id="rect2170"/>
     <path fill="#d7e3f4" fill-rule="evenodd" stroke="#000000" stroke-width="1.12137" stroke-miterlimit="4" stroke-dashoffset="0" d="m398.96582,132.29784l0,-21.05431l-1.67712,0.53235l0,19.98962l1.67712,0.53235l0,-0.00002z" id="rect2166"/>
     <path fill="#d7e3f4" fill-rule="evenodd" stroke="#000000" stroke-width="1.12137" stroke-miterlimit="4" stroke-dashoffset="0" d="m405.72095,121.76814c0,5.54507 -2.98572,10.12595 -6.84024,10.79591l0,-21.58678c3.85443,0.6701 6.84024,5.24586 6.84024,10.79086l0,0.00002l0,-0.00001z" id="path2160"/>
     <path fill="#d7e3f4" fill-rule="evenodd" stroke="#000000" stroke-width="1.12137" stroke-miterlimit="4" stroke-dashoffset="0" d="m390.7663,129.26852l0,-14.9957c0,-2.53252 -2.03882,-4.57133 -4.57132,-4.57133l-9.67233,0c-2.5325,0 -4.57132,2.0388 -4.57132,4.57133l0,14.9957c0,2.53253 2.03882,4.57132 4.57132,4.57132l9.67233,0c2.5325,0 4.57132,-2.03879 4.57132,-4.57132z" id="rect4115"/>
     <path fill="#d7e3f4" fill-rule="evenodd" stroke="#000000" stroke-width="1.12137" stroke-miterlimit="4" stroke-dashoffset="0" d="m389.53781,132.29784l0,-21.05431l1.67712,0.53235l0,19.98962l-1.67712,0.53235l0,-0.00002z" id="path4113"/>
     <path fill="#d7e3f4" fill-rule="evenodd" stroke="#000000" stroke-width="1.12137" stroke-miterlimit="4" stroke-dashoffset="0" id="path4120" d="m380.474,124.53244l-8.30228,0c-0.14059,0 -0.25378,-0.23455 -0.25378,-0.52592c0,-0.29137 0.11319,-0.52596 0.25378,-0.52596l8.30228,0c0.14059,0 0.25378,0.23457 0.25378,0.52596c0,0.29137 -0.11319,0.52592 -0.25378,0.52592z"/>
     <path fill="#d7e3f4" fill-rule="evenodd" stroke="#000000" stroke-width="1.12137" stroke-miterlimit="4" stroke-dashoffset="0" d="m380.474,120.06078l-8.30228,0c-0.14059,0 -0.25378,-0.23454 -0.25378,-0.52592c0,-0.29137 0.11319,-0.52595 0.25378,-0.52595l8.30228,0c0.14059,0 0.25378,0.23458 0.25378,0.52595c0,0.29137 -0.11319,0.52592 -0.25378,0.52592z" id="path4122"/>
     <path fill="#d7e3f4" fill-rule="evenodd" stroke="#000000" stroke-width="1.12137" stroke-miterlimit="4" stroke-dashoffset="0" d="m382.17862,133.96127l0,-24.3812c0,-0.41289 -0.3324,-0.74528 -0.74527,-0.74528c-0.4129,0 -0.74527,0.33239 -0.74527,0.74528l0,24.3812c0,0.41289 0.33237,0.74529 0.74527,0.74529c0.41287,0 0.74527,-0.3324 0.74527,-0.74529z" id="rect4117"/>
     <path fill="#d7e3f4" fill-rule="evenodd" stroke="#000000" stroke-width="1.12137" stroke-miterlimit="4" stroke-dashoffset="0" d="m376.01288,134.28201c0,1.12502 -0.90588,2.0309 -2.03088,2.0309c-1.12503,0 -2.03091,-0.90588 -2.03088,-2.0309l0,-2.90659l-2.33365,-1.24835l0,-16.81998l2.33365,-1.19709l0,-2.85068c0,-1.12502 0.90585,-2.03088 2.03088,-2.03088c1.125,0 2.03088,0.90585 2.03088,2.03088l0,25.02266l0,0.00003z" id="rect4128"/>
     <path fill="#d7e3f4" fill-rule="evenodd" stroke="#000000" stroke-width="1.12137" stroke-miterlimit="4" stroke-dashoffset="0" d="m365.74069,130.61943l0,-17.69752l-1.68277,0.44746l0,16.80263l1.68277,0.44742l0,0.00003l0,-0.00002z" id="path4134"/>
     <path fill="#d7e3f4" fill-rule="evenodd" stroke="#000000" stroke-width="1.12137" stroke-miterlimit="4" stroke-dashoffset="0" d="m370.03552,121.93845c-0.08386,1.70103 -1.45593,3.05315 -3.12933,3.05315c-1.26984,0 -2.3595,-0.78342 -2.84991,-1.90282l-22.64575,0l0,-2.63618l22.64575,0c0.49042,-1.11943 1.58008,-1.90285 2.84991,-1.90285c1.72739,0 3.12933,1.44298 3.12933,3.22095c0,0.05555 0.00272,0.11286 0,0.16776l0,-0.00001z" id="path4138"/>
     <path fill="#d7e3f4" fill-rule="evenodd" stroke="#000000" stroke-width="1.12137" stroke-miterlimit="4" stroke-dashoffset="0" d="m366.93835,119.76421c-1.10757,0 -2.0065,0.8989 -2.0065,2.00648c0,1.10758 0.89893,2.00648 2.0065,2.00648c1.10757,0 2.00647,-0.8989 2.00647,-2.00648c0,-1.10758 -0.8989,-2.00648 -2.00647,-2.00648z" id="path4147"/>
    </g>
    <g stroke-width="1.12137" stroke-miterlimit="4" id="g10618">
     <path fill="#d7e3f4" fill-rule="evenodd" stroke="#000000" stroke-width="1.86895" stroke-miterlimit="4" stroke-dashoffset="0" d="m359.12308,60.79528c-7.25867,0 -13.14243,5.99268 -13.14243,13.37651c0,6.44225 4.48584,11.80735 10.45041,13.07554l0,13.19259c0,1.16674 1.19391,2.1068 2.69202,2.1068c1.49811,0 2.70874,-0.94006 2.70874,-2.1068l0,-13.19259c5.96457,-1.2682 10.45041,-6.63329 10.45041,-13.07554c0,-7.38383 -5.90045,-13.37651 -13.15915,-13.37651z" id="path10620"/>
     <g stroke-width="1.12137" stroke-miterlimit="4" id="g10622">
      <path fill="#ffffff" fill-rule="evenodd" stroke="#000000" stroke-width="1.12137" stroke-miterlimit="4" stroke-dashoffset="0" id="path10624" d="m369.64899,74.16604c0,5.80779 -4.71356,10.52135 -10.52133,10.52135c-5.8078,0 -10.52139,-4.71357 -10.52139,-10.52135c0,-5.80778 4.71359,-10.52135 10.52139,-10.52135c5.80777,0 10.52133,4.71357 10.52133,10.52135z"/>
      <path fill="none" fill-rule="evenodd" stroke="#000000" stroke-width="1.12137" stroke-miterlimit="4" id="path10626" d="m351.73712,66.77552l14.78104,14.78104"/>
      <path fill="none" fill-rule="evenodd" stroke="#000000" stroke-width="1.12137" stroke-miterlimit="4" id="path10628" d="m348.67584,74.16604l20.90356,0"/>
      <path fill="none" fill-rule="evenodd" stroke="#000000" stroke-width="1.12137" stroke-miterlimit="4" id="path10630" d="m359.12766,63.71426l0,20.90356"/>
      <path fill="none" fill-rule="evenodd" stroke="#000000" stroke-width="1.12137" stroke-miterlimit="4" id="path10632" d="m363.12738,64.50986l-7.99948,19.31236"/>
      <path fill="none" fill-rule="evenodd" stroke="#000000" stroke-width="1.12137" stroke-miterlimit="4" id="path10634" d="m366.51816,66.77552l-14.78104,14.78104"/>
      <path fill="none" fill-rule="evenodd" stroke="#000000" stroke-width="1.12137" stroke-miterlimit="4" id="path10636" d="m355.1279,64.50986l7.99948,19.31236"/>
      <path fill="none" fill-rule="evenodd" stroke="#000000" stroke-width="1.12137" stroke-miterlimit="4" id="path10638" d="m368.78381,78.16576l-19.31235,-7.99944"/>
      <path fill="none" fill-rule="evenodd" stroke="#000000" stroke-width="1.12137" stroke-miterlimit="4" id="path10640" d="m349.47147,78.16576l19.31235,-7.99944"/>
      <path fill="#f9f9f9" fill-rule="evenodd" stroke="#000000" stroke-width="1.12137" stroke-miterlimit="4" stroke-dashoffset="0" id="path10642" d="m367.63971,74.16604c0,4.69866 -3.81342,8.51206 -8.51205,8.51206c-4.69867,0 -8.51208,-3.8134 -8.51208,-8.51206c0,-4.69865 3.81342,-8.51206 8.51208,-8.51206c4.69864,0 8.51205,3.81342 8.51205,8.51206z"/>
      <path fill="none" fill-rule="evenodd" stroke="#214478" stroke-width="1.12137" stroke-miterlimit="4" id="path10644" d="m359.0369,74.70803l-2.01166,-7.40482"/>
      <path fill="#214478" fill-rule="evenodd" stroke-width="1.12137" stroke-miterlimit="4" stroke-dashoffset="0" id="path10646" d="m359.8656,74.52653c0,0.48119 -0.39053,0.87171 -0.8717,0.87171c-0.4812,0 -0.8717,-0.39053 -0.8717,-0.87171c0,-0.48118 0.3905,-0.8717 0.8717,-0.8717c0.48117,0 0.8717,0.39053 0.8717,0.8717z"/>
     </g>
    </g>
    <g id="da22d">
     <text font-weight="bold" xml:space="preserve" text-anchor="left" font-family="Helvetica, Arial, sans-serif" font-size="12" id="svg_7" y="28.49998" x="415.00016" stroke-width="0" stroke="#000" fill="#000000">Venous pressure</text>
     <text font-weight="bold" xml:space="preserve" text-anchor="left" font-family="Helvetica, Arial, sans-serif" font-size="12" id="svg_8" y="46.49998" x="435.00016" stroke-width="0" stroke="#000" fill="#000000">monitor</text>
     <text xml:space="preserve" text-anchor="left" font-family="Helvetica, Arial, sans-serif" font-size="12" id="VP_value" y="65.49998" x="436.00018" stroke-width="0" stroke="#000" fill="#0000ff" font-weight="bold">%VP_value%</text>
    </g>
    <line stroke-linecap="null" stroke-linejoin="round" id="svg_9" y2="46.99845" x2="427.98591" y1="69.49771" x1="378.98752" fill-opacity="null" stroke-opacity="null" stroke-width="null" stroke="#000000" fill="none"/>
   </g>
   <g id="AP_display">
    <g stroke-width="1.12137" stroke-miterlimit="4" id="g9356">
     <path fill="#d7e3f4" fill-rule="evenodd" stroke="#000000" stroke-width="1.86895" stroke-miterlimit="4" stroke-dashoffset="0" d="m400.43463,285.60367c-7.25867,0 -13.1424,5.99268 -13.1424,13.37653c0,6.44223 4.48581,11.80734 10.45038,13.07553l0,13.1926c0,1.16672 1.19391,2.10678 2.69202,2.10678c1.49814,0 2.70877,-0.94003 2.70877,-2.10678l0,-13.1926c5.96454,-1.26819 10.45038,-6.6333 10.45038,-13.07553c0,-7.38385 -5.90045,-13.37653 -13.15915,-13.37653z" id="rect9324"/>
     <g stroke-width="1.12137" stroke-miterlimit="4" id="g9340">
      <path fill="#ffffff" fill-rule="evenodd" stroke="#000000" stroke-width="1.12137" stroke-miterlimit="4" stroke-dashoffset="0" id="path6324" d="m410.96054,298.97443c0,5.8078 -4.71356,10.52136 -10.52133,10.52136c-5.8078,0 -10.52136,-4.71356 -10.52136,-10.52136c0,-5.80777 4.71356,-10.52136 10.52136,-10.52136c5.80777,0 10.52133,4.71359 10.52133,10.52136z"/>
      <path fill="none" fill-rule="evenodd" stroke="#000000" stroke-width="1.12137" stroke-miterlimit="4" id="path6335" d="m393.04868,291.58389l14.78104,14.78107"/>
      <path fill="none" fill-rule="evenodd" stroke="#000000" stroke-width="1.12137" stroke-miterlimit="4" id="path6331" d="m389.98743,298.97443l20.90353,0"/>
      <path fill="none" fill-rule="evenodd" stroke="#000000" stroke-width="1.12137" stroke-miterlimit="4" id="path6333" d="m400.43921,288.52264l0,20.90356"/>
      <path fill="none" fill-rule="evenodd" stroke="#000000" stroke-width="1.12137" stroke-miterlimit="4" id="path6339" d="m404.43893,289.31824l-7.99945,19.31238"/>
      <path fill="none" fill-rule="evenodd" stroke="#000000" stroke-width="1.12137" stroke-miterlimit="4" id="path6337" d="m407.82971,291.58389l-14.78104,14.78107"/>
      <path fill="none" fill-rule="evenodd" stroke="#000000" stroke-width="1.12137" stroke-miterlimit="4" id="path6341" d="m396.43948,289.31824l7.99945,19.31238"/>
      <path fill="none" fill-rule="evenodd" stroke="#000000" stroke-width="1.12137" stroke-miterlimit="4" id="path7316" d="m410.0954,302.97415l-19.31238,-7.99945"/>
      <path fill="none" fill-rule="evenodd" stroke="#000000" stroke-width="1.12137" stroke-miterlimit="4" id="path7314" d="m390.78302,302.97415l19.31238,-7.99945"/>
      <path fill="#f9f9f9" fill-rule="evenodd" stroke="#000000" stroke-width="1.12137" stroke-miterlimit="4" stroke-dashoffset="0" id="path6328" d="m408.95126,298.97443c0,4.69867 -3.81339,8.51205 -8.51205,8.51205c-4.69867,0 -8.51208,-3.81339 -8.51208,-8.51205c0,-4.69867 3.81342,-8.51205 8.51208,-8.51205c4.69867,0 8.51205,3.81339 8.51205,8.51205z"/>
      <path fill="none" fill-rule="evenodd" stroke="#214478" stroke-width="1.12137" stroke-miterlimit="4" id="path7354" d="m400.17166,299.86996l2.40778,-7.75836"/>
      <path fill="#214478" fill-rule="evenodd" stroke-width="1.12137" stroke-miterlimit="4" stroke-dashoffset="0" id="path7356" d="m401.17715,299.33493c0,0.48117 -0.39053,0.8717 -0.8717,0.8717c-0.4812,0 -0.8717,-0.39053 -0.8717,-0.8717c0,-0.4812 0.3905,-0.8717 0.8717,-0.8717c0.48117,0 0.8717,0.3905 0.8717,0.8717z"/>
     </g>
    </g>
    <g id="sfaf22">
     <text font-weight="bold" xml:space="preserve" text-anchor="left" font-family="Helvetica, Arial, sans-serif" font-size="12" id="svg_3" y="405.49558" x="362.50247" stroke-width="0" stroke="#000" fill="#000000">Aterial pressure</text>
     <text font-weight="bold" xml:space="preserve" text-anchor="left" font-family="Helvetica, Arial, sans-serif" font-size="12" id="svg_4" y="423.49558" x="382.50247" stroke-width="0" stroke="#000" fill="#000000">monitor</text>
     <text xml:space="preserve" text-anchor="left" font-family="Helvetica, Arial, sans-serif" font-size="12" id="AP_value" y="442.49558" x="382.50248" stroke-width="0" stroke="#000" fill="#0000ff" font-weight="bold">%AP_value%</text>
    </g>
    <line stroke="#000000" stroke-linecap="null" stroke-linejoin="round" id="svg_11" y2="392.48455" x2="391.49056" y1="332.48905" x1="398.48718" fill-opacity="null" stroke-opacity="null" stroke-width="null" fill="none"/>
   </g>
  </g>
  <g data-custom="m915" class="refinementGroup" id="svg_6">
   <g id="saline_solution">
    <path fill="#ffffff" stroke="#000000" stroke-width="0.5" stroke-linecap="round" stroke-linejoin="round" stroke-miterlimit="4" stroke-dashoffset="0" id="rect3654" d="m217.13463,215.63072l5.23073,0c1.30751,0 2.36014,1.05263 2.36014,2.36012l0,14.51833c0,1.3075 -1.05263,2.36011 -2.36014,2.36011l-5.23073,0c-1.30751,0 -2.36011,-1.05261 -2.36011,-2.36011l0,-14.51833c0,-1.30751 1.0526,-2.36012 2.36011,-2.36012z"/>
    <path fill="#ffffff" stroke="#000000" stroke-width="0.5" stroke-linecap="round" stroke-linejoin="round" stroke-miterlimit="4" stroke-dashoffset="0" id="rect3658" d="m215.25,223.00002l9,0c0.9695,0 1.75,0.7805 1.75,1.75c0,0.96948 -0.7805,1.75 -1.75,1.75l-9,0c-0.9695,0 -1.75,-0.78052 -1.75,-1.75c0,-0.9695 0.7805,-1.75 1.75,-1.75z"/>
    <path fill="none" fill-rule="evenodd" stroke="#999999" stroke-linecap="round" stroke-linejoin="round" stroke-miterlimit="4" id="path3622" d="m219.80966,43.93934l11.03552,13.32843l-21.71751,0l7.00284,-10.48694"/>
    <path fill="#ffffff" stroke="#000000" stroke-width="0.45581" stroke-linecap="round" stroke-linejoin="round" stroke-miterlimit="4" stroke-dashoffset="0" id="rect3646" d="m217.53368,127.72245l4.6183,0c0.98546,0 1.77881,0.79336 1.77881,1.77882l0,3.55763c0,0.98546 -0.79335,1.77881 -1.77881,1.77881l-4.6183,0c-0.98547,0 -1.77881,-0.79335 -1.77881,-1.77881l0,-3.55763c0,-0.98546 0.79333,-1.77882 1.77881,-1.77882z"/>
    <path fill="#ffffff" fill-rule="evenodd" stroke="#000000" stroke-width="0.5" stroke-miterlimit="4" id="path3636" d="m218.37032,128.48433l-1,168.99998l0,0.03125c0.16386,22.2095 4.38943,35.62134 11.0625,43.875c6.67305,8.25366 15.68127,11.08838 24.71875,12.375c9.03746,1.28662 18.21684,1.14523 25.59373,3.25c7.37689,2.10477 15.47043,7.12552 18.1875,17.375l2.875,-0.78125c-2.94058,-11.09253 -12.23013,-17.18054 -20.25,-19.46875c-8.01987,-2.28824 -17.25189,-2.10278 -25.96873,-3.34375c-8.71686,-1.241 -16.78641,-3.78912 -22.84375,-11.28125c-6.05737,-7.49216 -10.21388,-20.19315 -10.375,-42.03125l1,-168.96873l-3,-0.03125z"/>
    <path fill="#ffffff" stroke="#000000" stroke-width="0.8" stroke-linejoin="round" stroke-miterlimit="4" stroke-dashoffset="0" id="path3593" d="m211.65575,55.78394c-1.71184,0.17281 -3.03125,1.61612 -3.03125,3.375c0,0 -3.43596,33.99112 0,47.96875c0.84465,3.43613 2.24179,10.04301 4.40625,13.28125l6.6875,9.99999l0.3125,-0.375l0.3125,0.375l6.6875,-9.99999c2.16444,-3.23824 3.56158,-9.84512 4.40625,-13.28125c0.84906,-3.45401 1.27849,-8.13011 1.44385,-13.21341c0.5038,-15.4877 -1.44385,-34.75534 -1.44385,-34.75534c0,-1.75888 -1.31941,-3.20219 -3.03125,-3.375c-0.11412,-0.01152 -0.2265,0 -0.34375,0l-8.03125,0l-8.03125,0c-0.11726,0 -0.22963,-0.01152 -0.34375,0z"/>
    <path fill="none" fill-rule="evenodd" stroke="#000000" stroke-width="0.5" stroke-miterlimit="4" id="path3624" d="m207.87032,76.00001c7.52122,1.93633 18.90053,1.49075 24.5,0"/>
    <path fill="none" fill-rule="evenodd" stroke="#000000" stroke-width="0.5" stroke-miterlimit="4" d="m211.62032,105l18.25,-13.75" id="path3632"/>
    <path fill="none" fill-rule="evenodd" stroke="#000000" stroke-width="0.5" stroke-miterlimit="4" id="path3634" d="m212.12032,100.5l17.5,-13.75"/>
    <path fill="#ffffff" stroke="#000000" stroke-width="0.5" stroke-linecap="round" stroke-linejoin="round" stroke-miterlimit="4" stroke-dashoffset="0" id="rect3644" d="m216.66083,123.85547l6.36397,0c0.97934,0 1.76776,0.78842 1.76776,1.76776l0,3.53554c0,0.97934 -0.78842,1.76776 -1.76776,1.76776l-6.36397,0c-0.97934,0 -1.76776,-0.78842 -1.76776,-1.76776l0,-3.53554c0,-0.97934 0.78842,-1.76776 1.76776,-1.76776z"/>
    <text font-weight="bold" fill="#000000" stroke="#000" stroke-width="0" x="45.37031" y="83.5" id="svg_14" font-size="12" font-family="Helvetica, Arial, sans-serif" text-anchor="left" xml:space="preserve">Saline solution</text>
    <line stroke-linecap="undefined" stroke-linejoin="undefined" id="svg_20" y2="89.5" x2="196.87031" y1="82.5" x1="140.87031" stroke-width="1.5" stroke="#000" fill="none"/>
   </g>
   <g id="heparin_pump">
    <text font-weight="bold" fill="#000000" stroke="#000" stroke-width="0" x="193.5" y="536.5" id="svg_22" font-size="12" font-family="Helvetica, Arial, sans-serif" text-anchor="left" xml:space="preserve">Heparin pump</text>
    <line fill="none" stroke-width="1.5" x1="244" y1="519.5" x2="267" y2="383.5" id="svg_25" stroke-linejoin="undefined" stroke-linecap="undefined" stroke="#000"/>
    <path fill="#ffffff" stroke="#000000" stroke-width="0.5" stroke-linecap="round" stroke-linejoin="round" stroke-miterlimit="4" stroke-dashoffset="0" id="rect3335" d="m277.6203,371.25l21.25,0l0,1l-21.25,0l0,-1z"/>
    <path fill="#ffffff" stroke="#000000" stroke-width="0.5" stroke-linecap="round" stroke-linejoin="round" stroke-miterlimit="4" stroke-dashoffset="0" id="rect3325" d="m244.60657,366.07837l42.0155,0c0.78384,0 1.41492,0.63107 1.41492,1.41492l0,8.57437c0,0.78387 -0.63107,1.41492 -1.41492,1.41492l-42.0155,0c-0.78387,0 -1.41492,-0.63104 -1.41492,-1.41492l0,-8.57437c0,-0.78384 0.63104,-1.41492 1.41492,-1.41492z"/>
    <path fill="#ffffff" stroke="#000000" stroke-width="0.5" stroke-linecap="round" stroke-linejoin="round" stroke-miterlimit="4" stroke-dashoffset="0" id="rect3327" d="m239.40157,366.28049c-0.75626,0 -1.375,0.61874 -1.375,1.375l0,8.25c0,0.75623 0.61874,1.375 1.375,1.375l0.65625,0c0.75624,0 1.375,-0.61877 1.375,-1.375l0,-2.53125l21.59373,0l0,3.90625l3.40625,0l0,-11l-3.40625,0l0,3.90625l-21.59373,0l0,-2.53125c0,-0.75626 -0.61876,-1.375 -1.375,-1.375l-0.65625,0z"/>
    <path fill="#80e5ff" stroke="#000000" stroke-width="0.5" stroke-linecap="round" stroke-linejoin="round" stroke-miterlimit="4" stroke-dashoffset="0" id="rect3329" d="m284.86758,368.87439l3.69086,0l0,5.81216l-3.69086,0l0,-5.81216z"/>
    <path fill="none" fill-rule="evenodd" stroke="#808080" stroke-width="0.2" stroke-miterlimit="4" id="path3339" d="m282.3703,366l0,5.25"/>
    <path fill="none" fill-rule="evenodd" stroke="#808080" stroke-width="0.2" stroke-miterlimit="4" d="m280.3703,366l0,5.25" id="path3341"/>
    <path fill="none" fill-rule="evenodd" stroke="#808080" stroke-width="0.2" stroke-miterlimit="4" id="path3343" d="m278.3703,366l0,5.25"/>
    <path fill="none" fill-rule="evenodd" stroke="#808080" stroke-width="0.2" stroke-miterlimit="4" d="m276.3703,366l0,5.25" id="path3345"/>
    <path fill="none" fill-rule="evenodd" stroke="#808080" stroke-width="0.2" stroke-miterlimit="4" id="path3347" d="m274.3703,366l0,5.25"/>
    <path fill="none" fill-rule="evenodd" stroke="#808080" stroke-width="0.2" stroke-miterlimit="4" d="m272.3703,366l0,5.25" id="path3349"/>
    <path fill="none" fill-rule="evenodd" stroke="#808080" stroke-width="0.2" stroke-miterlimit="4" id="path3351" d="m270.3703,366l0,5.25"/>
    <path fill="none" fill-rule="evenodd" stroke="#808080" stroke-width="0.2" stroke-miterlimit="4" d="m268.3703,366l0,5.25" id="path3353"/>
    <path fill="none" fill-rule="evenodd" stroke="#808080" stroke-width="0.2" stroke-miterlimit="4" d="m266.3703,366l0,5.25" id="path3357"/>
    <path fill="none" fill-rule="evenodd" stroke="#808080" stroke-width="0.2" stroke-miterlimit="4" id="path3359" d="m264.3703,366l0,5.25"/>
    <path fill="none" fill-rule="evenodd" stroke="#808080" stroke-width="0.2" stroke-miterlimit="4" id="path3363" d="m262.3703,366l0,5.25"/>
    <path fill="none" fill-rule="evenodd" stroke="#808080" stroke-width="0.2" stroke-miterlimit="4" d="m260.3703,366l0,5.25" id="path3365"/>
    <path fill="none" fill-rule="evenodd" stroke="#808080" stroke-width="0.2" stroke-miterlimit="4" id="path3367" d="m258.3703,366l0,5.25"/>
    <path fill="none" fill-rule="evenodd" stroke="#808080" stroke-width="0.2" stroke-miterlimit="4" d="m256.3703,366l0,5.25" id="path3369"/>
   </g>
   <g id="clean_blood_flow">
    <path fill="#fe6d6d" stroke="#000000" stroke-width="0.8" stroke-linecap="round" stroke-linejoin="round" stroke-miterlimit="4" stroke-dashoffset="0" id="path7992" d="m281.45862,137.65634l-5.24173,9.1801l-5.2417,9.18011l10.36908,-3.37991l10.77304,3.2787l-5.32932,-9.1295l-5.32938,-9.12952l0,0.00002z"/>
    <path fill="#fe6d6d" stroke="#000000" stroke-width="0.8" stroke-linecap="round" stroke-linejoin="round" stroke-miterlimit="4" stroke-dashoffset="0" d="m347.29489,102.9082l-9.18008,-5.24173l-9.18011,-5.24171l3.37988,10.36907l-3.27869,10.77306l9.12949,-5.32933l9.12952,-5.32935l0,-0.00001z" id="path7994"/>
    <path fill="#fe6d6d" stroke="#000000" stroke-width="0.8" stroke-linecap="round" stroke-linejoin="round" stroke-miterlimit="4" stroke-dashoffset="0" id="path7996" d="m457.64954,237.6978l-5.24173,-9.18011l-5.2417,-9.1801l10.36908,3.3799l10.77304,-3.27872l-5.32935,9.12952l-5.32935,9.12953l0,-0.00002z"/>
    <path fill="#fe6d6d" stroke="#000000" stroke-width="0.8" stroke-linecap="round" stroke-linejoin="round" stroke-miterlimit="4" stroke-dashoffset="0" d="m481.78732,297.14072l-9.18008,-5.24173l-9.18011,-5.2417l3.37988,10.36908l-3.27872,10.77304l9.12952,-5.32932l9.12952,-5.32938z" id="path7998"/>
    <path fill="#fe6d6d" stroke="#000000" stroke-width="0.8" stroke-linecap="round" stroke-linejoin="round" stroke-miterlimit="4" stroke-dashoffset="0" d="m454.64954,137.6978l-5.24173,-9.18011l-5.2417,-9.18008l10.36908,3.3799l10.77304,-3.27872l-5.32935,9.12952l-5.32935,9.12953l0,-0.00003l0,-0.00003l0,0.00002z" id="path8020"/>
    <text font-weight="bold" xml:space="preserve" text-anchor="left" font-family="Helvetica, Arial, sans-serif" font-size="12" id="svg_23" y="94.49991" x="507.50008" fill-opacity="null" stroke-opacity="null" stroke-width="0" stroke="#000000" fill="#000000">Clean blood</text>
    <line stroke="#000000" stroke-linecap="null" stroke-linejoin="null" id="svg_24" y2="117.49993" x2="470.50006" y1="94.49991" x1="502.50009" fill-opacity="null" stroke-opacity="null" fill="none"/>
   </g>
   <g id="dialysate_flow">
    <path fill="#dbb20e" stroke="#000000" stroke-width="0.8" stroke-linecap="round" stroke-linejoin="round" stroke-miterlimit="4" stroke-dashoffset="0" id="path7721" d="m195.09303,293.77475l0.14153,-10.57025l0.14154,-10.57025l7.21988,8.17404l10.94679,2.64136l-9.22487,5.16254l-9.22487,5.16257z"/>
    <path fill="#f8d547" stroke="#000000" stroke-width="0.8" stroke-linecap="round" stroke-linejoin="round" stroke-miterlimit="4" stroke-dashoffset="0" d="m170.54277,232.13426l-0.14154,10.57025l-0.14153,10.57025l-7.21989,-8.17404l-10.94678,-2.64136l9.22485,-5.16255l9.22487,-5.16257l0.00002,0.00002z" id="path7724"/>
    <text font-weight="bold" xml:space="preserve" text-anchor="left" font-family="Helvetica, Arial, sans-serif" font-size="12" id="svg_13" y="212.4878" x="38.94941" fill-opacity="null" stroke-opacity="null" stroke-width="0" stroke="#000000" fill="#000000">Fresh dialysate</text>
    <text font-weight="bold" xml:space="preserve" text-anchor="left" font-family="Helvetica, Arial, sans-serif" font-size="12" id="svg_15" y="255.49535" x="20.94625" fill-opacity="null" stroke-opacity="null" stroke-width="0" stroke="#000000" fill="#000000">Fresh dialysate</text>
    <line stroke-linecap="null" stroke-linejoin="round" id="svg_17" y2="280.49974" x2="188.97576" y1="256.49552" x1="115.96293" fill-opacity="null" stroke-opacity="null" stroke-width="null" stroke="#000000" fill="none"/>
    <line stroke-linecap="null" stroke-linejoin="round" id="svg_18" y2="231.49113" x2="154.96978" y1="216.4885" x1="130.96557" fill-opacity="null" stroke-opacity="null" stroke-width="null" stroke="#000000" fill="none"/>
   </g>
  </g>
 </g>
</svg>